<?xml version="1.0" encoding="utf-8"?>
<!-- Generator: Adobe Illustrator 23.0.4, SVG Export Plug-In . SVG Version: 6.00 Build 0)  -->
<svg version="1.1" id="Layer_1" xmlns="http://www.w3.org/2000/svg" xmlns:xlink="http://www.w3.org/1999/xlink" x="0px" y="0px"
	 viewBox="0 0 400 541.83" style="enable-background:new 0 0 400 541.83;" xml:space="preserve">
<style type="text/css">
	.st0{fill:#FFFFFF;}
	.st1{font-family:'MyriadPro-Regular';}
	.st2{font-size:21px;}
</style>
<g>
	<polygon class="st0" points="272.7,117.67 280.47,0.5 399.41,0.5 379.99,117.67 	"/>
	<path d="M398.82,1l-19.25,116.17H273.24L280.94,1H398.82 M400,0H280l-7.83,118.17h108.25L400,0L400,0z"/>
</g>
<g>
	<polygon class="st0" points="20.01,117.67 0.59,0.5 119.53,0.5 127.3,117.67 	"/>
	<path d="M119.06,1l7.7,116.17H20.43L1.18,1H119.06 M120,0H0l19.58,118.17h108.25L120,0L120,0z"/>
</g>
<g>
	<polygon class="st0" points="146.35,117.67 140.53,0.5 259.47,0.5 253.65,117.67 	"/>
	<path d="M258.95,1l-5.78,116.17H146.83L141.05,1H258.95 M260,0H140l5.87,118.17h108.25L260,0L260,0z"/>
</g>
<g>
	<polygon class="st0" points="272.7,400.11 280.47,280.5 399.41,280.5 379.99,400.11 	"/>
	<path d="M398.82,281l-19.26,118.61H273.23l7.7-118.61H398.82 M400,280H280l-7.83,120.61h108.25L400,280L400,280z"/>
</g>
<g>
	<polygon class="st0" points="20.01,400.11 0.59,280.5 119.53,280.5 127.3,400.11 	"/>
	<path d="M119.06,281l7.7,118.61H20.43L1.18,281H119.06 M120,280H0l19.58,120.61h108.25L120,280L120,280z"/>
</g>
<g>
	<polygon class="st0" points="146.35,400.11 140.52,280.5 259.48,280.5 253.65,400.11 	"/>
	<path d="M258.95,281l-5.78,118.61H146.83L141.05,281H258.95 M260,280H140l5.87,120.61h108.25L260,280L260,280z"/>
</g>
<g>
	<polygon class="st0" points="146.35,541.33 140.52,420.5 259.48,420.5 253.65,541.33 	"/>
	<path d="M258.95,421l-5.78,119.83H146.83L141.05,421H258.95 M260,420H140l5.87,121.83h108.25L260,420L260,420z"/>
</g>
<g>
	<polygon class="st0" points="272.7,258.89 280.47,140.5 399.41,140.5 379.99,258.89 	"/>
	<path d="M398.82,141l-19.25,117.39H273.23l7.7-117.39H398.82 M400,140H280l-7.83,119.39h108.25L400,140L400,140z"/>
</g>
<g>
	<polygon class="st0" points="20.01,258.89 0.59,140.5 119.53,140.5 127.3,258.89 	"/>
	<path d="M119.06,141l7.7,117.39H20.43L1.18,141H119.06 M120,140H0l19.58,119.39h108.25L120,140L120,140z"/>
</g>
<g>
	<polygon class="st0" points="146.35,258.89 140.53,140.5 259.47,140.5 253.65,258.89 	"/>
	<path d="M258.95,141l-5.78,117.39H146.83L141.05,141H258.95 M260,140H140l5.87,119.39h108.25L260,140L260,140z"/>
</g>
<text transform="matrix(1 0 0 1 30.3403 60.3823)" class="st1 st2">SEAT 1</text>
<text transform="matrix(1 0 0 1 170.3403 60.3823)" class="st1 st2">SEAT 2</text>
<text transform="matrix(1 0 0 1 310.3403 60.3823)" class="st1 st2">SEAT 3</text>
<text transform="matrix(1 0 0 1 30.3403 200.3823)" class="st1 st2">SEAT 4</text>
<text transform="matrix(1 0 0 1 170.3403 200.3823)" class="st1 st2">SEAT 5</text>
<text transform="matrix(1 0 0 1 310.3403 200.3823)" class="st1 st2">SEAT 6</text>
<text transform="matrix(1 0 0 1 30.3403 340.3823)" class="st1 st2">SEAT 7</text>
<text transform="matrix(1 0 0 1 170.3403 340.3823)" class="st1 st2">SEAT 8</text>
<text transform="matrix(1 0 0 1 310.3403 340.3823)" class="st1 st2">SEAT 9</text>
<text transform="matrix(1 0 0 1 164.9541 480.3823)" class="st1 st2">SEAT 10</text>
</svg>
